<svg width="209" height="243" viewBox="0 0 209 243" fill="none" xmlns="http://www.w3.org/2000/svg">
<path d="M2.97858 132.144C13.8133 143.181 29.1415 147.238 43.8082 148.998C56.6397 150.439 69.5702 150.495 82.264 149.468C107.309 147.312 131.769 140.275 153.858 128.992C166.27 122.627 178.068 114.923 188.694 105.898C191.413 103.651 187.584 99.3405 184.959 101.651C166.666 117.09 145.142 128.757 122.079 135.95C99.1714 143.116 74.6989 146.055 50.3543 144.068C35.3254 142.853 18.3455 140.052 7.10036 128.605C6.05722 127.502 4.31623 127.246 3.15479 128.174C2.08752 129.165 1.93543 131.041 2.97858 132.144Z" fill="white"/>
<path d="M132.426 97.9485C146.72 98.8716 161.048 99.9499 175.342 100.873C177.036 100.975 178.577 101.103 180.271 101.205C181.812 101.334 183.533 101.189 185.081 101.72C187.122 102.324 186.766 104.725 186.335 106.413C184.917 113.113 183.006 119.74 181.282 126.494C179.3 134.262 177.41 142.094 175.428 149.862C174.566 153.239 179.924 155.187 180.693 151.746C182.589 144.316 184.486 136.886 186.289 129.392C188.099 122.3 190.156 115.244 191.626 108.051C192.189 105.13 192.437 101.862 190.606 99.2861C188.334 96.144 184.452 95.8673 181.063 95.6641C173.546 95.1475 166.029 94.631 158.512 94.1144C149.854 93.4783 141.289 92.9062 132.571 92.3614C129.09 92.0942 128.851 97.6173 132.426 97.9485Z" fill="white"/>
</svg>
