<svg width="42" height="40" viewBox="0 0 42 40" fill="none" xmlns="http://www.w3.org/2000/svg">
<path d="M1.16857 32.6579C5.7246 31.7542 10.2806 30.8506 14.8367 29.9469C14.4978 29.4951 14.1213 29.0432 13.7824 28.5537C11.5608 31.7166 9.30166 34.9171 7.08012 38.08C6.77889 38.4942 7.00481 39.1343 7.419 39.3602C7.87083 39.6238 8.39797 39.4355 8.6992 39.0213C10.9207 35.8584 13.1799 32.6579 15.4015 29.495C15.9286 28.7796 15.0626 27.9513 14.3472 28.1019C9.79114 29.0056 5.23511 29.9092 0.67908 30.8129C0.189589 30.9259 -0.111641 31.4907 0.0389718 31.9801C0.151931 32.5073 0.679076 32.7332 1.16857 32.6579Z" fill="white"/>
<path d="M7.26842 25.9933C10.6949 25.7674 14.1213 25.165 17.4348 24.186C19.0915 23.6965 20.7483 23.094 22.3673 22.4539C22.4803 22.4163 22.7439 22.3786 22.8192 22.3033C22.9321 22.1904 22.8945 22.341 22.8192 22.1904C22.7062 21.8891 22.6686 22.3786 22.6309 22.5292C22.292 23.3199 21.9155 24.1107 21.5013 24.9014C20.5976 26.6334 19.6187 28.3278 18.5644 29.9469C17.8866 30.9636 19.5057 31.9049 20.1835 30.8883C21.2377 29.3068 22.2167 27.6501 23.0828 25.918C23.4969 25.0896 23.9111 24.2613 24.2877 23.3953C24.6265 22.6046 24.8901 21.5879 24.2123 20.9101C23.4969 20.1947 22.5556 20.383 21.7272 20.7219C20.8612 21.0608 19.9952 21.3997 19.1292 21.7009C17.3218 22.341 15.4768 22.8305 13.5941 23.2446C11.5232 23.6965 9.41465 23.9601 7.30608 24.1107C6.81659 24.1483 6.36475 24.5248 6.36475 25.052C6.32709 25.5038 6.77893 25.9933 7.26842 25.9933Z" fill="white"/>
<path d="M18.15 17.8225C19.5431 16.8435 21.2752 16.467 22.8566 15.9775C24.6639 15.4127 26.4713 14.8102 28.2786 14.2454C29.1823 13.9442 30.0484 13.6806 30.952 13.3794C31.1026 13.3417 31.2533 13.3041 31.4039 13.2288C31.6674 13.1535 31.5168 13.2664 31.4792 13.1911C31.4792 13.2288 31.2533 12.9652 31.2533 12.9652C31.2533 12.9652 30.9897 13.6806 30.952 13.7936C30.2366 15.5633 29.5212 17.333 28.8058 19.1027C27.9774 21.0983 27.1867 23.0939 26.3583 25.0895C26.1701 25.579 26.5843 26.1062 26.9984 26.2568C27.5256 26.4074 27.9774 26.0685 28.1657 25.6167C28.9564 23.6587 29.7471 21.6631 30.5755 19.7051C31.3662 17.7472 32.2322 15.8269 32.9477 13.8312C33.2489 12.9652 33.1359 11.9486 32.2322 11.4967C31.3286 11.0449 30.2366 11.6097 29.3706 11.8733C27.375 12.5134 25.417 13.1535 23.4214 13.7936C22.3295 14.1325 21.1999 14.509 20.1079 14.8479C19.0913 15.1868 18.0746 15.5633 17.171 16.1657C16.7568 16.467 16.5685 16.9941 16.8321 17.4459C17.0957 17.8978 17.7358 18.086 18.15 17.8225Z" fill="white"/>
<path d="M25.6808 8.40926C25.7184 8.14569 25.869 8.07039 26.0949 7.91978C26.5091 7.69386 26.9986 7.5056 27.4505 7.31734C28.3541 6.90315 29.2955 6.52661 30.1991 6.11243C32.0818 5.28406 33.9644 4.4557 35.8848 3.62733C36.8637 3.21314 37.8427 2.7613 38.8217 2.34711C39.1606 2.1965 39.4618 2.04589 39.8007 1.97058C39.9136 1.93293 39.989 1.93294 40.1396 1.93294C40.1396 1.93294 40.3278 1.93294 40.2149 1.93294C40.2149 1.93294 40.1772 1.93292 40.1772 1.89527C40.2902 1.97058 40.2902 1.97058 40.2149 1.89527C40.3278 1.6317 40.1396 1.93293 40.1772 1.85763C40.1396 1.89528 40.1772 2.00824 40.1772 2.04589C40.1396 2.23416 40.1019 2.38476 40.0643 2.57302C39.9513 3.10017 39.8383 3.62732 39.6877 4.15446C39.4618 5.09579 39.1982 6.07479 38.9347 7.01612C38.3322 9.16235 37.6545 11.3086 36.8637 13.4172C36.6755 13.9066 37.052 14.4338 37.5038 14.5844C38.031 14.735 38.4828 14.3961 38.6711 13.9443C39.4618 11.7981 40.1396 9.65182 40.742 7.46793C41.0432 6.37599 41.3445 5.28406 41.5704 4.15446C41.7963 3.13782 42.3235 1.85761 41.721 0.87863C40.5538 -1.04168 37.7298 0.690369 36.3366 1.33047C34.1904 2.2718 32.0441 3.21313 29.8979 4.15446C28.693 4.6816 27.4881 5.20875 26.2832 5.7359C25.3042 6.18774 24.024 6.63958 23.8357 7.88213C23.7604 8.37162 23.9487 8.89876 24.4759 9.04937C25.003 9.19999 25.6054 8.93641 25.6808 8.40926Z" fill="white"/>
</svg>
