<svg width="220" height="52" viewBox="0 0 220 52" fill="none" xmlns="http://www.w3.org/2000/svg">
<path d="M212.782 50.4563C204.872 35.4592 180.546 25.75 155.622 21.4156C140.25 18.7283 124.281 17.7747 108.312 17.2545C92.3426 16.7344 76.3736 16.3877 60.4045 16.7344C42.6445 17.0812 24.8845 18.6416 8.46774 22.6292C6.67682 23.0627 4.4382 22.1091 3.84123 21.1555C3.24425 19.9419 4.58742 18.9016 6.37834 18.4682C36.9733 11.013 71.5978 11.9665 103.984 12.8334C135.325 13.7003 167.86 16.301 193.231 27.8306C205.469 33.3786 215.17 40.7472 219.797 49.416C221.289 52.0167 214.125 53.1437 212.782 50.4563Z" fill="white"/>
<path d="M22.8428 3.47474C15.4748 9.48334 9.05746 16.4683 3.7493 24.2795C3.35317 23.3782 2.95704 22.4769 2.56091 21.5005C11.2758 22.9276 19.8322 25.0306 28.151 27.9598C29.1809 28.3353 29.8147 29.2366 29.4978 30.2881C29.2602 31.1894 28.0718 31.9405 27.0418 31.5649C18.7231 28.6357 10.1666 26.4576 1.45174 25.1057C0.184122 24.8804 -0.370462 23.3031 0.263349 22.3267C5.72996 14.2902 12.3057 7.00479 19.9907 0.770863C20.7829 0.094895 21.9713 0.0197875 22.7636 0.770863C23.5559 1.52194 23.7143 2.79877 22.8428 3.47474Z" fill="white"/>
</svg>
