<svg width="38" height="38" viewBox="0 0 38 38" fill="none" xmlns="http://www.w3.org/2000/svg">
<path d="M34.8333 26.79V31.54C34.8351 31.981 34.7447 32.4174 34.5681 32.8215C34.3914 33.2255 34.1323 33.5882 33.8074 33.8863C33.4825 34.1844 33.0988 34.4113 32.6811 34.5526C32.2634 34.6939 31.8208 34.7464 31.3816 34.7067C26.5094 34.1773 21.8294 32.5124 17.7174 29.8458C13.8918 27.4149 10.6484 24.1714 8.21744 20.3458C5.54157 16.2152 3.87632 11.5124 3.3566 6.61833C3.31703 6.18049 3.36907 5.7392 3.50939 5.32257C3.64972 4.90594 3.87526 4.52309 4.17165 4.1984C4.46804 3.87371 4.82879 3.61429 5.23094 3.43666C5.63308 3.25903 6.06781 3.16708 6.50744 3.16667H11.2574C12.0258 3.1591 12.7708 3.43121 13.3534 3.93226C13.936 4.43331 14.3166 5.12912 14.4241 5.89C14.6246 7.4101 14.9964 8.90265 15.5324 10.3392C15.7455 10.9059 15.7916 11.5218 15.6653 12.1139C15.539 12.706 15.2456 13.2495 14.8199 13.68L12.8091 15.6908C15.0631 19.6548 18.3452 22.9369 22.3091 25.1908L24.3199 23.18C24.7504 22.7543 25.2939 22.4609 25.886 22.3346C26.4782 22.2084 27.0941 22.2545 27.6608 22.4675C29.0973 23.0035 30.5898 23.3753 32.1099 23.5758C32.8791 23.6843 33.5815 24.0717 34.0836 24.6644C34.5857 25.257 34.8525 26.0135 34.8333 26.79Z" stroke="white" stroke-width="2" stroke-linecap="round" stroke-linejoin="round"/>
</svg>
